<?xml version="1.0" standalone="no"?>
<!DOCTYPE svg PUBLIC "-//W3C//DTD SVG 20010904//EN"
 "http://www.w3.org/TR/2001/REC-SVG-20010904/DTD/svg10.dtd">
<svg version="1.0" xmlns="http://www.w3.org/2000/svg"
 width="500.000000pt" height="500.000000pt" viewBox="0 0 500.000000 500.000000"
 preserveAspectRatio="xMidYMid meet">
<metadata>
Created by potrace 1.11, written by Peter Selinger 2001-2013
</metadata>
<g transform="translate(0.000000,500.000000) scale(0.100000,-0.100000)"
fill="#000000" stroke="none">
<path d="M327 4929 c-97 -23 -190 -101 -235 -197 l-27 -57 0 -2175 0 -2175 27
-57 c34 -73 103 -142 176 -176 l57 -27 2175 0 2175 0 57 27 c73 34 142 103
176 176 l27 57 0 2175 0 2175 -27 57 c-34 73 -103 142 -176 176 l-57 27 -2155
2 c-1236 0 -2171 -3 -2193 -8z m3390 -811 c-3 -13 -22 -123 -43 -245 l-38
-223 -248 0 c-136 0 -248 3 -248 8 0 4 18 112 40 241 22 129 40 236 40 238 0
2 113 3 251 3 l251 0 -5 -22z m777 -5 c-3 -16 -22 -125 -42 -243 l-37 -215
-254 -3 -253 -2 5 22 c3 13 22 123 43 246 l38 222 253 0 253 0 -6 -27z m-144
-800 c1 -5 -18 -115 -42 -245 l-42 -238 -1708 0 c-939 0 -1708 3 -1708 8 -1 4
18 114 42 245 l42 237 1708 0 c939 0 1708 -3 1708 -7z m-154 -900 c-3 -10 -21
-110 -41 -223 -19 -113 -38 -217 -41 -232 l-6 -28 -600 -2 -601 -3 -177 -400
-177 -400 -536 -3 -535 -2 170 382 c93 211 174 393 179 406 l9 22 -576 0 -576
0 6 28 c3 15 22 119 41 232 20 113 38 213 41 223 5 16 95 17 1715 17 1624 0
1710 -1 1705 -17z"/>
</g>
</svg>
